<svg width="29" height="28" viewBox="0 0 29 28" fill="none" xmlns="http://www.w3.org/2000/svg">
<path d="M26.1663 12.8334V23.3334H23.833V19.8334H5.16634V23.3334H2.83301V4.66675H5.16634V16.3334H14.4997V8.16675H21.4997C24.077 8.16675 26.1663 10.2561 26.1663 12.8334ZM23.833 16.3334V12.8334C23.833 11.5447 22.7884 10.5001 21.4997 10.5001H16.833V16.3334H23.833ZM9.83301 12.8334C10.4773 12.8334 10.9997 12.3111 10.9997 11.6667C10.9997 11.0224 10.4773 10.5001 9.83301 10.5001C9.18868 10.5001 8.66634 11.0224 8.66634 11.6667C8.66634 12.3111 9.18868 12.8334 9.83301 12.8334ZM9.83301 15.1667C7.90002 15.1667 6.33301 13.5998 6.33301 11.6667C6.33301 9.73376 7.90002 8.16675 9.83301 8.16675C11.766 8.16675 13.333 9.73376 13.333 11.6667C13.333 13.5998 11.766 15.1667 9.83301 15.1667Z" fill="#A0AEC0"/>
</svg>
