<svg width="25" height="24" viewBox="0 0 25 24" fill="none" xmlns="http://www.w3.org/2000/svg">
<path d="M3.16699 18.5V13C3.16699 12.627 3.25549 12.2652 3.43249 11.9145C3.60933 11.5638 3.85416 11.2757 4.16699 11.05V8.5C4.16699 7.80133 4.40899 7.21 4.89299 6.726C5.37699 6.242 5.96833 6 6.66699 6H10.917C11.2812 6 11.6074 6.07083 11.8957 6.2125C12.1842 6.35417 12.4413 6.55 12.667 6.8C12.8927 6.55 13.1497 6.35417 13.4382 6.2125C13.7266 6.07083 14.0528 6 14.417 6H18.667C19.3657 6 19.957 6.242 20.441 6.726C20.925 7.21 21.167 7.80133 21.167 8.5V11.05C21.4798 11.2757 21.7247 11.5638 21.9015 11.9145C22.0785 12.2652 22.167 12.627 22.167 13V18.5H20.667V16.5H4.66699V18.5H3.16699ZM13.417 10.5H19.667V8.5C19.667 8.21667 19.5712 7.97917 19.3795 7.7875C19.1878 7.59583 18.9503 7.5 18.667 7.5H14.417C14.1337 7.5 13.8962 7.59583 13.7045 7.7875C13.5128 7.97917 13.417 8.21667 13.417 8.5V10.5ZM5.66699 10.5H11.917V8.5C11.917 8.21667 11.8212 7.97917 11.6295 7.7875C11.4378 7.59583 11.2003 7.5 10.917 7.5H6.66699C6.38366 7.5 6.14616 7.59583 5.95449 7.7875C5.76283 7.97917 5.66699 8.21667 5.66699 8.5V10.5ZM4.66699 15H20.667V13C20.667 12.7167 20.5712 12.4792 20.3795 12.2875C20.1878 12.0958 19.9503 12 19.667 12H5.66699C5.38366 12 5.14616 12.0958 4.95449 12.2875C4.76283 12.4792 4.66699 12.7167 4.66699 13V15Z" fill="#687588"/>
</svg>
