<svg width="80" height="80" viewBox="0 0 80 80" fill="none" xmlns="http://www.w3.org/2000/svg">
<path fill-rule="evenodd" clip-rule="evenodd" d="M33.3723 29.7161C33.388 29.1161 33.8786 28.6379 34.4786 28.6379C35.0786 28.6379 35.5723 29.116 35.5879 29.7161V40.0001C35.5879 40.4376 35.3286 40.8376 34.9286 41.0125L24.1534 46.7188C23.894 46.8625 23.5877 46.8969 23.3034 46.8094C23.019 46.725 22.7815 46.5313 22.644 46.2688C22.5034 46.0063 22.4784 45.7 22.5659 45.4157C22.6565 45.1344 22.8565 44.9 23.119 44.7657L33.3718 39.3375L33.3723 29.7161ZM56.7971 43.6345L56.794 43.6376C52.4909 42.3563 49.0127 39.1782 47.35 35.0064C45.6906 30.8377 46.0282 26.1376 48.2718 22.2504C47.825 21.9129 47.3687 21.591 46.8968 21.2848L45.6155 23.4973C45.4811 23.7691 45.2405 23.9723 44.9468 24.0598C44.6562 24.1504 44.3436 24.1129 44.0781 23.9629C43.8156 23.8098 43.6249 23.5566 43.5562 23.2629C43.4843 22.966 43.5374 22.6535 43.7062 22.4004L44.9875 20.1786H44.9843C42.1719 18.7317 39.0812 17.9067 35.9219 17.7598V20.313C35.9313 20.613 35.8188 20.9005 35.6094 21.1161C35.4001 21.3286 35.1126 21.4505 34.8126 21.4505C34.5157 21.4505 34.2282 21.3286 34.0188 21.1161C33.8094 20.9005 33.6969 20.613 33.7063 20.313V17.7567C30.5469 17.9067 27.4594 18.7349 24.6471 20.1786L25.9284 22.391V22.3942C26.2346 22.9223 26.0534 23.5973 25.5253 23.9035C24.9971 24.2098 24.319 24.0317 24.0128 23.5035L22.7315 21.2879H22.7346C20.0784 23.0035 17.819 25.2661 16.1033 27.9192L18.3158 29.2005H18.3127C18.5752 29.3411 18.769 29.5849 18.8502 29.8692C18.9315 30.1567 18.894 30.463 18.744 30.7224C18.5971 30.9817 18.3502 31.1661 18.0627 31.2411C17.7721 31.3161 17.4658 31.2692 17.2127 31.113L14.9971 29.8317V29.8348C13.5502 32.6473 12.7221 35.738 12.5721 38.8972H15.1253C15.7346 38.8972 16.2284 39.391 16.2284 40.0004C16.2284 40.6097 15.7346 41.1035 15.1253 41.1035H12.5721C12.7221 44.2628 13.5503 47.3535 14.994 50.1659L17.2065 48.8846L17.2096 48.8877C17.7377 48.5783 18.4158 48.7596 18.7221 49.2877C19.0283 49.8158 18.8471 50.494 18.3189 50.8002L16.1033 52.0815H16.1065C17.8221 54.7346 20.0846 56.9971 22.7409 58.7128L24.0222 56.5003L24.019 56.5034C24.1503 56.2222 24.394 56.0128 24.6878 55.919C24.9815 55.8284 25.3034 55.8628 25.5691 56.0159C25.8378 56.169 26.0284 56.4284 26.0972 56.7284C26.1628 57.0315 26.1034 57.3471 25.9284 57.6002L24.6472 59.8158C27.4596 61.2658 30.5534 62.094 33.7128 62.244V59.6909C33.7128 59.0815 34.2065 58.5878 34.8159 58.5878C35.4252 58.5878 35.919 59.0815 35.919 59.6909V62.244C39.0784 62.094 42.169 61.269 44.9846 59.8253L43.7033 57.6097V57.6066C43.3971 57.0784 43.5783 56.4034 44.1064 56.0972C44.6346 55.7909 45.3127 55.9691 45.6189 56.4972L46.9002 58.7159H46.8971C49.5533 56.9972 51.8158 54.7346 53.5315 52.0784L51.3159 50.7971H51.319C50.7909 50.494 50.6065 49.819 50.9096 49.2909C51.2128 48.7627 51.8878 48.5784 52.4159 48.8846L54.6346 50.1659L54.6377 50.1628C55.6908 48.1097 56.419 45.9034 56.794 43.6253L56.7971 43.6345ZM62.7471 44.1313C61.4878 44.2845 60.2159 44.2751 58.9627 44.1032C57.7627 51.1782 53.5252 57.372 47.3627 61.0504C41.2034 64.7286 33.7379 65.5222 26.9411 63.2191C20.1474 60.916 14.7003 55.7504 12.0443 49.0847C9.38497 42.4191 9.78497 34.9255 13.1318 28.5783C16.4818 22.2314 22.4446 17.6719 29.4446 16.1031C36.4478 14.5344 43.7854 16.1125 49.5231 20.4218C50.3137 19.4343 51.2293 18.5531 52.248 17.7969C45.6918 12.6531 37.1984 10.6719 29.0416 12.3813C20.8856 14.0906 13.9008 19.3188 9.96321 26.6629C6.02257 34.0035 5.53193 42.7125 8.61633 50.4533C11.7038 58.1939 18.0539 64.1749 25.9635 66.7941C33.876 69.4097 42.5387 68.3972 49.6323 64.0285C56.7292 59.6567 61.5291 52.3725 62.7483 44.1285L62.7471 44.1313ZM55.6503 28.7593L59.744 33.078V33.0812C60.1659 33.5218 60.8627 33.5406 61.3065 33.1187L71.9849 23.7907C74.0162 27.6313 73.913 32.2467 71.713 35.9907C69.513 39.7376 65.5317 42.0751 61.1882 42.172C56.8476 42.2688 52.7634 40.1095 50.401 36.4657C48.0354 32.822 47.7292 28.2161 49.5854 24.2905C51.4448 20.3624 55.201 17.678 59.5166 17.1968C63.8353 16.7155 68.0918 18.4999 70.7726 21.9186L60.6198 30.7874L57.2542 27.2374C57.0542 27.0093 56.773 26.8749 56.473 26.8624C56.173 26.8499 55.8792 26.9593 55.6636 27.1686C55.4449 27.3749 55.3199 27.6624 55.3199 27.9624C55.3167 28.2624 55.4386 28.5499 55.6542 28.7593L55.6503 28.7593Z" fill="white"/>
</svg>
