<svg width="173" height="28" viewBox="0 0 173 28" fill="none" xmlns="http://www.w3.org/2000/svg">
<g clip-path="url(#clip0_936_18818)">
<path d="M19.8574 -0.00075086H26.7625V27.9993H13.3355L6.90222 0.240582V27.9966H0V-0.00341797H13.467L19.8574 27.7552V-0.00075086ZM48.8488 -0.00075086H35.2959L28.9913 27.9993H35.812L37.0572 22.4379H47.0946L48.3355 27.9993H55.1562L48.8488 -0.00075086ZM38.2124 17.4406L42.0723 0.240582L45.9323 17.4406H38.2124ZM71.0637 16.7606L81.3998 -0.00075086H73.7213L65.0149 14.1592V-0.00075086H57.3807V27.9993H65.0163V17.2379H69.7341L73.7227 27.9966H81.4427L77.2839 16.7579H71.0665L71.0637 16.7606ZM100.096 10.9206H94.864L91.4329 16.0806V-0.00075086H83.7987V27.9993H91.4343V16.3993H100.098V27.9993H107.733V-0.00075086H100.096V10.9166V10.9206ZM111.418 28.0006H130.417V22.8006H119.053V16.2792H128.144V11.0792H122.27L119.053 15.8792V5.19925H130.417V-0.00075086H111.419V27.9993L111.418 28.0006ZM133.417 28.0006H152.412V22.8006H141.048V16.2792H150.139V11.0792H144.263L141.047 15.8792V5.19925H152.412V-0.00075086H133.412V27.9993L133.417 28.0006ZM163.051 22.8006V-0.00075086H155.414V27.9993H172.999V22.7993H163.047L163.051 22.8006Z" fill="#1F2937"/>
</g>
<defs>
<clipPath id="clip0_936_18818">
<rect width="173" height="28" fill="white"/>
</clipPath>
</defs>
</svg>
