<svg width="148" height="30" viewBox="0 0 148 30" fill="none" xmlns="http://www.w3.org/2000/svg">
<g clip-path="url(#clip0_936_18808)">
<path d="M21.4999 26.9533L21.0606 29.9252H0.0458984C0.91541 27.8692 0.860493 26.7103 0.860493 25.2243V4.79441C0.860493 3.35515 0.91541 2.09347 0.0458984 0.0934717H6.34299H20.5481L20.5847 3.12151C20.2003 2.96263 19.8891 2.82244 19.6053 2.6916C18.8457 2.40188 17.8846 2.13085 16.887 2.1402C15.2944 2.1402 8.61287 2.1402 5.64738 2.1402V13.8224H18.8365L18.1867 16.1215H5.64738V27.8131C8.07286 27.8131 15.8252 27.8131 17.5368 27.8131C19.5413 27.8505 21.5366 26.6916 21.5366 26.6916L21.4816 26.9439C21.4816 26.9533 21.4908 26.9533 21.4999 26.9533ZM53.1319 29.9252C53.4156 28.458 53.4156 26.3832 53.1868 24.6916L51.3196 10.6355L41.1234 29.9159H39.1831L28.8222 9.76637L26.8085 25C26.5889 26.757 26.5248 28.9813 26.7079 29.9252H23.0651C23.7698 28.4019 23.9437 27.7383 24.2732 25.2337L27.5682 0.0934717H29.2432L41.334 23.5514L53.4156 0.0934717H54.6787L58.0835 25.1776C58.4221 27.6729 58.6784 28.3925 59.3557 29.9252H53.1319ZM83.821 29.9252L78.9701 19H69.2132L64.4264 29.9252H64.0145H60.6371H60.6188C61.827 28.3925 62.2388 27.6823 63.0901 25.7757L74.4029 0.0934717H75.6751L86.8048 25.0561C87.9947 27.4953 88.553 28.2523 90.2554 29.9252H83.821ZM114.345 29.9252L109.495 19H99.7377L94.9508 29.9252H94.5481H91.1615H91.1432C92.3514 28.3925 92.7633 27.6823 93.6145 25.7757L104.927 0.0934717H106.2L117.338 25.0561C118.528 27.4953 119.087 28.2523 120.789 29.9252H114.345ZM142.005 29.9439C139.085 27.2243 135.305 23.6168 130.573 17.8972C129.219 16.2804 128.267 16.0748 127.654 16.0374V25.2243C127.654 26.7009 127.654 27.8692 128.477 29.9252H122.052C122.922 27.8692 122.867 26.7103 122.867 25.2243V4.77571C122.867 3.33646 122.922 2.07478 122.052 0.0747801H128.349C132.651 0.0747801 142.82 -0.317744 142.82 8.26169C142.82 12.7944 139.296 15.2337 135.159 15.8505L133.932 15.972C133.932 15.972 147.35 29.3645 147.927 29.9439H142.005ZM134.399 14.1402L134.39 14.1495C137.099 13.1028 138.014 10.4766 137.923 8.25235C137.822 6.11216 136.88 1.45796 127.663 1.83179V14.5514C127.663 14.5514 132.825 14.8411 134.271 14.1963C134.353 14.1589 134.399 14.1402 134.399 14.1402ZM100.671 16.9159H108.552L104.579 8.00936L100.671 16.9159ZM70.156 16.9159H78.0365L74.0642 8.00936L70.156 16.9159Z" fill="#1F2937"/>
</g>
<defs>
<clipPath id="clip0_936_18808">
<rect width="148" height="30" fill="white"/>
</clipPath>
</defs>
</svg>
