<svg width="204" height="22" viewBox="0 0 204 22" fill="none" xmlns="http://www.w3.org/2000/svg">
<g clip-path="url(#clip0_936_18804)">
<path d="M203.844 0.216945L203.935 0.0221373H186.057C180.787 0.0221373 176.297 0.974038 172.585 2.87785C168.985 4.6855 166.173 7.50493 164.597 10.8871C163.558 13.0743 163.262 15.0608 163.709 16.8464C163.95 17.7519 164.434 18.5926 165.123 19.2966C165.811 20.0006 166.681 20.5468 167.662 20.8887C169.603 21.6295 172.842 22 177.376 22H193.528L195.138 18.5112H186.057C181.67 18.5112 178.751 18.0123 177.299 17.0147C175.7 15.9389 175.88 13.4417 177.129 10.8163C179.295 6.24714 183.83 3.40028 190.103 3.40028H197.139L195.52 6.83156H200.881L204 0.216945H203.844ZM141.212 13.2027L152.09 3.85631L154.352 13.2027H141.212ZM48.7107 13.2381L59.3024 4.29021L61.2131 13.2381H48.7107ZM151.157 0H144.532L119.041 21.0747L129.001 0.0221373H118.078L104.879 9.15155L98.0833 14.0793H97.7925L100.992 6.9024L97.0752 0.0221373H86.1025L76.1227 21.1146L70.3705 0.0221373H58.3345L31.755 22H38.42L45.2102 16.2444H61.9453L63.2792 22H81.0624L87.4916 8.41216C87.8176 7.73033 88.1234 6.94668 88.4294 6.07003C88.4805 6.85023 88.6983 7.61486 89.0714 8.32361L94.7282 19.6579H95.6811L111.86 8.36788C112.824 7.6472 113.743 6.88007 114.613 6.07003C113.986 7.09277 113.549 7.87201 113.294 8.41216L106.865 22H118.605H130.982L137.697 16.2444H155.078L156.472 22H162.587L156.634 0H151.157ZM34.7388 16.8464C36.7797 15.1765 38.3996 13.146 39.4931 10.8871C41.1179 7.4514 40.9792 4.78164 39.0769 2.87785C37.1745 0.974038 33.5837 0.0221373 28.3046 0.0221373H10.4412L8.82639 3.46227H21.1282C27.4019 3.46227 29.2223 6.22499 27.056 10.7941C25.8072 13.4506 24.6988 15.8724 22.086 16.9572C19.6989 17.9489 17.2266 18.2411 12.8384 18.2411H7.14637L11.3941 9.34192H6.018L0 22H16.1935C20.7336 22 24.3211 21.6295 26.9556 20.8887C29.8572 20.0671 32.5158 18.6864 34.7388 16.8464Z" fill="#1F2937"/>
</g>
<defs>
<clipPath id="clip0_936_18804">
<rect width="204" height="22" fill="white"/>
</clipPath>
</defs>
</svg>
