<svg width="184" height="28" viewBox="0 0 184 28" fill="none" xmlns="http://www.w3.org/2000/svg">
<g clip-path="url(#clip0_936_18811)">
<mask id="mask0_936_18811" style="mask-type:luminance" maskUnits="userSpaceOnUse" x="0" y="0" width="184" height="28">
<path d="M183.5 0H0.5V28H183.5V0Z" fill="white"/>
</mask>
<g mask="url(#mask0_936_18811)">
<path d="M29.9862 0L32.7872 7.89263C27.6866 10.1165 22.1942 11.2605 16.6449 11.2549C11.0944 11.261 5.60091 10.1161 0.5 7.89L3.30099 0C7.50106 1.90941 12.051 2.89261 16.6514 2.88491C21.2466 2.89105 25.7911 1.90788 29.9862 0ZM16.6449 19.6301C12.0467 19.6368 7.49907 18.6537 3.30099 16.7451L0.5 24.6351C5.60091 26.8612 11.0944 28.0062 16.6449 28C22.1941 28.0054 27.6863 26.8619 32.7872 24.6391L29.9862 16.7451C25.7891 18.6539 21.2423 19.6371 16.6449 19.6301ZM155.788 13.4779C155.819 15.4241 155.46 17.3564 154.731 19.1563C154.003 20.9562 152.92 22.5858 151.551 23.9454C150.182 25.3049 148.554 26.3658 146.767 27.063C144.981 27.7602 143.073 28.079 141.161 28H132V0H141.751C151.031 0 155.788 6.59258 155.788 13.4779ZM149.437 13.4779C149.437 9.47749 147.104 5.93596 141.878 5.93596H138.281V22.064H141.098C146.736 22.064 149.437 17.8118 149.437 13.4779ZM100.747 28L94.6552 16.2652C96.0009 15.5712 97.1233 14.5001 97.89 13.1782C98.6566 11.8563 99.0354 10.3389 98.9817 8.80505C98.9817 4.41966 95.9617 0 88.6643 0H77.6691V28H83.9476V17.5732H88.4557L93.7219 28H100.747ZM83.9476 12.1185V5.93332H87.3423C90.5671 5.93332 92.3662 6.55566 92.3662 8.96591C92.3662 11.6596 90.2923 12.1079 87.3423 12.1079L83.9476 12.1185ZM65.1094 0H57.37L47.562 28H54.0104L55.8574 22.453H66.622L68.469 28H74.9174L65.1094 0ZM57.7576 16.7451L61.2403 6.28405L64.7218 16.7451H57.7576ZM119.242 0H111.503L101.695 28H108.143L109.99 22.453H120.755L122.598 28H129.046L119.242 0ZM111.89 16.7451L115.372 6.28405L118.854 16.7451H111.89ZM173.692 0H165.953L156.145 28H162.593L164.44 22.453H175.205L177.052 28H183.5L173.692 0ZM166.34 16.7451L169.823 6.28405L173.304 16.7451H166.34Z" fill="#1F2937"/>
</g>
</g>
<defs>
<clipPath id="clip0_936_18811">
<rect width="183" height="28" fill="white" transform="translate(0.5)"/>
</clipPath>
</defs>
</svg>
