<svg width="80" height="80" viewBox="0 0 80 80" fill="none" xmlns="http://www.w3.org/2000/svg">
<path d="M21.1318 49.9999C23.9654 49.9999 26.2671 47.6918 26.2671 44.8588C26.2671 43.7829 25.9324 42.7815 25.3635 41.9551L31.1682 35.9577C32.0123 36.5645 33.0349 36.9293 34.1505 36.9293C35.8312 36.9293 37.3149 36.1029 38.252 34.8483L43.9823 38.6678C43.8112 39.1815 43.6959 39.7176 43.6959 40.2872C43.6959 43.1239 46.0015 45.4282 48.8312 45.4282C51.6648 45.4282 53.9665 43.1201 53.9665 40.2872C53.9665 39.0512 53.5128 37.9344 52.784 37.0447L64.2597 23.874V29.7372C64.2597 30.2175 64.6502 30.6084 65.1299 30.6084C65.6096 30.6084 66 30.2175 66 29.7372V21.8711C66 21.3909 65.6095 21 65.1299 21H57.0643C56.5846 21 56.1942 21.3909 56.1942 21.8711C56.1942 22.3513 56.5846 22.7422 57.0643 22.7422H62.8801L51.4377 35.8796C50.6717 35.4254 49.7867 35.1462 48.8347 35.1462C47.2134 35.1462 45.7818 35.9168 44.841 37.097L39.055 33.2402C39.1925 32.7786 39.2892 32.2983 39.2892 31.7884C39.2892 28.9516 36.9837 26.6473 34.1539 26.6473C31.3204 26.6473 29.0187 28.9554 29.0187 31.7884C29.0187 32.8642 29.3533 33.8619 29.9185 34.6884L24.1139 40.6858C23.2735 40.0827 22.2472 39.7142 21.1353 39.7142C18.3017 39.7142 16 42.0223 16 44.8552C15.9926 47.692 18.2983 49.9999 21.1318 49.9999ZM48.8316 36.9292C49.3373 36.9292 49.8132 37.0483 50.241 37.2494C50.7913 37.5062 51.2635 37.9008 51.6057 38.3997C51.9701 38.9357 52.1858 39.5872 52.1858 40.2834C52.1858 42.1336 50.6835 43.6413 48.8317 43.6413C46.9836 43.6413 45.4776 42.1373 45.4776 40.2834C45.4776 40.0824 45.5036 39.8888 45.5371 39.6989C45.6449 39.081 45.9275 38.53 46.3217 38.0796C46.939 37.3834 47.8313 36.9292 48.8316 36.9292ZM22.8501 41.9884C23.1067 42.1448 23.3447 42.3272 23.5529 42.5431C23.7611 42.7627 23.9322 43.0122 24.0772 43.2839C24.3301 43.7567 24.4862 44.2853 24.4862 44.8549C24.4862 46.7051 22.9803 48.2127 21.1322 48.2127C19.284 48.2127 17.7781 46.7088 17.7781 44.8549C17.7781 43.0047 19.2803 41.497 21.1322 41.497C21.7606 41.5007 22.3443 41.6869 22.8501 41.9884ZM30.7967 31.7882C30.7967 29.938 32.2989 28.4304 34.1508 28.4304C35.9989 28.4304 37.5049 29.9343 37.5049 31.7882C37.5049 31.9223 37.4825 32.0488 37.4639 32.1791C37.3896 32.812 37.1441 33.3853 36.7686 33.8581C36.155 34.6361 35.2142 35.1425 34.1507 35.1425C33.5186 35.1425 32.9348 34.9563 32.4327 34.6511C32.1762 34.4947 31.9382 34.3123 31.7299 34.0926C31.5217 33.873 31.3506 33.6199 31.2056 33.3518C30.9528 32.8865 30.7967 32.3578 30.7967 31.7882Z" fill="white"/>
<path d="M71.4702 57.1537V17.6802C71.4702 16.2046 70.252 15 68.7514 15H11.2469C9.75005 15 8.52802 16.2009 8.52802 17.6802V57.1537L3.36891 62.6897C2.99377 63.0924 2.89348 63.6783 3.12005 64.1762C3.34291 64.6778 3.84804 65 4.40151 65H75.6001C76.1536 65 76.6587 64.6778 76.8816 64.1762C77.1045 63.6746 77.0079 63.0924 76.6327 62.6897L71.4702 57.1537ZM10.1481 17.6802C10.1481 17.0834 10.6421 16.5964 11.2475 16.5964H68.7548C69.3602 16.5964 69.8542 17.0834 69.8542 17.6802V56.6672H66.2068V36.6319H58.6557V56.6672H52.1929V50.7284H44.6418V56.6672H37.529L37.5253 45.8955H29.9742V56.6709H24.5217V51.7317H16.9706V56.6709H10.1512L10.1481 17.6802Z" fill="white"/>
</svg>
