<svg width="29" height="28" viewBox="0 0 29 28" fill="none" xmlns="http://www.w3.org/2000/svg">
<path d="M14.5056 25.6697C8.06222 25.6697 2.83887 20.4464 2.83887 14.003C2.83887 7.55977 8.06222 2.33643 14.5056 2.33643C20.9488 2.33643 26.1722 7.55977 26.1722 14.003C26.1722 20.4464 20.9488 25.6697 14.5056 25.6697ZM14.5056 23.3364C19.6602 23.3364 23.8389 19.1577 23.8389 14.003C23.8389 8.84843 19.6602 4.66976 14.5056 4.66976C9.35087 4.66976 5.1722 8.84843 5.1722 14.003C5.1722 19.1577 9.35087 23.3364 14.5056 23.3364ZM10.4222 16.3364H16.8389C17.161 16.3364 17.4222 16.0753 17.4222 15.753C17.4222 15.4309 17.161 15.1697 16.8389 15.1697H12.1722C10.5614 15.1697 9.25553 13.864 9.25553 12.253C9.25553 10.6423 10.5614 9.33643 12.1722 9.33643H13.3389V7.00309H15.6722V9.33643H18.5889V11.6697H12.1722C11.85 11.6697 11.5889 11.9309 11.5889 12.253C11.5889 12.5753 11.85 12.8364 12.1722 12.8364H16.8389C18.4497 12.8364 19.7556 14.1422 19.7556 15.753C19.7556 17.364 18.4497 18.6697 16.8389 18.6697H15.6722V21.003H13.3389V18.6697H10.4222V16.3364Z" fill="#A0AEC0"/>
</svg>
