<svg width="29" height="28" viewBox="0 0 29 28" fill="none" xmlns="http://www.w3.org/2000/svg">
<path d="M21.5358 19.3862L26.5323 24.3827L24.8824 26.0326L19.8859 21.0361C18.0894 22.4734 15.811 23.3333 13.333 23.3333C7.53701 23.3333 2.83301 18.6293 2.83301 12.8333C2.83301 7.03725 7.53701 2.33325 13.333 2.33325C19.129 2.33325 23.833 7.03725 23.833 12.8333C23.833 15.3113 22.9732 17.5896 21.5358 19.3862ZM19.1952 18.5205C20.6218 17.0503 21.4997 15.0448 21.4997 12.8333C21.4997 8.32117 17.8451 4.66659 13.333 4.66659C8.82093 4.66659 5.16634 8.32117 5.16634 12.8333C5.16634 17.3453 8.82093 20.9999 13.333 20.9999C15.5445 20.9999 17.55 20.122 19.0203 18.6954L19.1952 18.5205Z" fill="white"/>
</svg>
