<svg width="29" height="28" viewBox="0 0 29 28" fill="none" xmlns="http://www.w3.org/2000/svg">
<path d="M14.5 24.3827L20.2747 18.6079C23.464 15.4187 23.464 10.2478 20.2747 7.05854C17.0855 3.86926 11.9146 3.86926 8.72529 7.05854C5.53601 10.2478 5.53601 15.4187 8.72529 18.6079L14.5 24.3827ZM14.5 27.6825L7.07538 20.2579C2.97487 16.1573 2.97487 9.50914 7.07538 5.40863C11.1759 1.30813 17.8241 1.30813 21.9247 5.40863C26.0252 9.50914 26.0252 16.1573 21.9247 20.2579L14.5 27.6825ZM14.5 15.1666C15.7887 15.1666 16.8333 14.122 16.8333 12.8333C16.8333 11.5446 15.7887 10.4999 14.5 10.4999C13.2113 10.4999 12.1667 11.5446 12.1667 12.8333C12.1667 14.122 13.2113 15.1666 14.5 15.1666ZM14.5 17.4999C11.9227 17.4999 9.83333 15.4105 9.83333 12.8333C9.83333 10.2559 11.9227 8.16658 14.5 8.16658C17.0773 8.16658 19.1667 10.2559 19.1667 12.8333C19.1667 15.4105 17.0773 17.4999 14.5 17.4999Z" fill="#A0AEC0"/>
</svg>
