<svg width="11" height="17" viewBox="0 0 11 17" fill="none" xmlns="http://www.w3.org/2000/svg">
<g filter="url(#filter0_i_3086_4214)">
<path fill-rule="evenodd" clip-rule="evenodd" d="M0.895117 5.86572H0V8.07864C0 10.9624 2.33774 13.3001 5.22149 13.3001C8.10524 13.3001 10.443 10.9624 10.443 8.07864V5.86572H9.54787V7.81009C9.54787 10.1995 7.61089 12.1365 5.22149 12.1365C2.8321 12.1365 0.895117 10.1995 0.895117 7.81009V5.86572Z" fill="#024CDC"/>
<path fill-rule="evenodd" clip-rule="evenodd" d="M5.22166 0.5C3.52436 0.5 2.14844 1.87592 2.14844 3.57322V8.15819C2.14844 9.85548 3.52436 11.2314 5.22166 11.2314C6.91895 11.2314 8.29488 9.85548 8.29488 8.15819V3.57322C8.29488 1.87593 6.91895 0.5 5.22166 0.5ZM7.45942 6.44756H2.98386V7.83001C2.98386 9.0659 3.98575 10.0678 5.22164 10.0678C6.45754 10.0678 7.45942 9.0659 7.45942 7.83001V6.44756Z" fill="#024CDC"/>
<path fill-rule="evenodd" clip-rule="evenodd" d="M5.52084 13.1709H4.53632V15.4335H3.35742L3.35742 16.5001L6.99755 16.5001V15.4335H5.52084V13.1709Z" fill="#024CDC"/>
</g>
<defs>
<filter id="filter0_i_3086_4214" x="0" y="0.5" width="10.4434" height="17.1818" filterUnits="userSpaceOnUse" color-interpolation-filters="sRGB">
<feFlood flood-opacity="0" result="BackgroundImageFix"/>
<feBlend mode="normal" in="SourceGraphic" in2="BackgroundImageFix" result="shape"/>
<feColorMatrix in="SourceAlpha" type="matrix" values="0 0 0 0 0 0 0 0 0 0 0 0 0 0 0 0 0 0 127 0" result="hardAlpha"/>
<feOffset dy="1.18182"/>
<feGaussianBlur stdDeviation="1.47727"/>
<feComposite in2="hardAlpha" operator="arithmetic" k2="-1" k3="1"/>
<feColorMatrix type="matrix" values="0 0 0 0 0.0259722 0 0 0 0 0.281644 0 0 0 0 0.779167 0 0 0 1 0"/>
<feBlend mode="normal" in2="shape" result="effect1_innerShadow_3086_4214"/>
</filter>
</defs>
</svg>
