<svg width="25" height="24" viewBox="0 0 25 24" fill="none" xmlns="http://www.w3.org/2000/svg">
<path d="M8.70474 17.4615C8.45391 17.4615 8.24391 17.3767 8.07474 17.207C7.90541 17.0373 7.82074 16.8271 7.82074 16.5763C7.82074 16.3254 7.90566 16.1154 8.07549 15.9462C8.24516 15.7769 8.45541 15.6923 8.70624 15.6923C8.95708 15.6923 9.16708 15.7771 9.33624 15.9467C9.50541 16.1164 9.58999 16.3267 9.58999 16.5775C9.58999 16.8283 9.50516 17.0384 9.33549 17.2078C9.16583 17.3769 8.95558 17.4615 8.70474 17.4615ZM12.6662 17.4615C12.4154 17.4615 12.2054 17.3767 12.0362 17.207C11.8671 17.0373 11.7825 16.8271 11.7825 16.5763C11.7825 16.3254 11.8673 16.1154 12.037 15.9462C12.2067 15.7769 12.4169 15.6923 12.6677 15.6923C12.9186 15.6923 13.1286 15.7771 13.2977 15.9467C13.4669 16.1164 13.5515 16.3267 13.5515 16.5775C13.5515 16.8283 13.4667 17.0384 13.297 17.2078C13.1273 17.3769 12.9171 17.4615 12.6662 17.4615ZM16.6277 17.4615C16.3769 17.4615 16.1669 17.3767 15.9977 17.207C15.8286 17.0373 15.744 16.8271 15.744 16.5763C15.744 16.3254 15.8288 16.1154 15.9985 15.9462C16.1682 15.7769 16.3784 15.6923 16.6292 15.6923C16.8801 15.6923 17.0901 15.7771 17.2592 15.9467C17.4286 16.1164 17.5132 16.3267 17.5132 16.5775C17.5132 16.8283 17.4283 17.0384 17.2585 17.2078C17.0888 17.3769 16.8786 17.4615 16.6277 17.4615ZM6.16699 13.5V12C6.16699 10.3295 6.71608 8.88433 7.81424 7.6645C8.91224 6.44467 10.2798 5.74367 11.917 5.5615V3.5H13.417V5.5615C15.0542 5.74367 16.4217 6.44467 17.5197 7.6645C18.6179 8.88433 19.167 10.3295 19.167 12V13.5H6.16699ZM7.66699 12H17.667C17.667 10.6167 17.1795 9.4375 16.2045 8.4625C15.2295 7.4875 14.0503 7 12.667 7C11.2837 7 10.1045 7.4875 9.12949 8.4625C8.15449 9.4375 7.66699 10.6167 7.66699 12ZM8.70474 20.423C8.45391 20.423 8.24391 20.3382 8.07474 20.1685C7.90541 19.9988 7.82074 19.7886 7.82074 19.5378C7.82074 19.2869 7.90566 19.0769 8.07549 18.9078C8.24516 18.7384 8.45541 18.6538 8.70624 18.6538C8.95708 18.6538 9.16708 18.7386 9.33624 18.9083C9.50541 19.0779 9.58999 19.2882 9.58999 19.539C9.58999 19.7898 9.50516 19.9999 9.33549 20.1693C9.16583 20.3384 8.95558 20.423 8.70474 20.423ZM12.6662 20.423C12.4154 20.423 12.2054 20.3382 12.0362 20.1685C11.8671 19.9988 11.7825 19.7886 11.7825 19.5378C11.7825 19.2869 11.8673 19.0769 12.037 18.9078C12.2067 18.7384 12.4169 18.6538 12.6677 18.6538C12.9186 18.6538 13.1286 18.7386 13.2977 18.9083C13.4669 19.0779 13.5515 19.2882 13.5515 19.539C13.5515 19.7898 13.4667 19.9999 13.297 20.1693C13.1273 20.3384 12.9171 20.423 12.6662 20.423ZM16.6277 20.423C16.3769 20.423 16.1669 20.3382 15.9977 20.1685C15.8286 19.9988 15.744 19.7886 15.744 19.5378C15.744 19.2869 15.8288 19.0769 15.9985 18.9078C16.1682 18.7384 16.3784 18.6538 16.6292 18.6538C16.8801 18.6538 17.0901 18.7386 17.2592 18.9083C17.4286 19.0779 17.5132 19.2882 17.5132 19.539C17.5132 19.7898 17.4283 19.9999 17.2585 20.1693C17.0888 20.3384 16.8786 20.423 16.6277 20.423Z" fill="#687588"/>
</svg>
