<svg width="20" height="20" viewBox="0 0 20 20" fill="none" xmlns="http://www.w3.org/2000/svg">
<path d="M9.99241 17.0832V15.8332H15.5772C15.6414 15.8332 15.7001 15.8064 15.7535 15.753C15.8069 15.6996 15.8337 15.6409 15.8337 15.5767V4.42296C15.8337 4.3588 15.8069 4.30005 15.7535 4.24671C15.7001 4.19324 15.6414 4.1665 15.5772 4.1665H9.99241V2.9165H15.5772C15.9982 2.9165 16.3545 3.06234 16.6462 3.354C16.9378 3.64567 17.0837 4.00199 17.0837 4.42296V15.5767C17.0837 15.9977 16.9378 16.354 16.6462 16.6457C16.3545 16.9373 15.9982 17.0832 15.5772 17.0832H9.99241ZM8.86262 13.5575L7.9972 12.6536L10.026 10.6248H2.91699V9.37484H10.026L7.9972 7.34609L8.86262 6.44213L12.4201 9.99984L8.86262 13.5575Z" fill="white"/>
</svg>
