<svg width="20" height="20" viewBox="0 0 20 20" fill="none" xmlns="http://www.w3.org/2000/svg">
<path d="M10.0042 18.3356C5.40187 18.3356 1.6709 14.6047 1.6709 10.0022C1.6709 5.3999 5.40187 1.66895 10.0042 1.66895C14.6066 1.66895 18.3376 5.3999 18.3376 10.0022C18.3376 14.6047 14.6066 18.3356 10.0042 18.3356ZM10.0042 16.6689C13.6862 16.6689 16.6709 13.6842 16.6709 10.0022C16.6709 6.32038 13.6862 3.33561 10.0042 3.33561C6.32233 3.33561 3.33757 6.32038 3.33757 10.0022C3.33757 13.6842 6.32233 16.6689 10.0042 16.6689ZM7.08757 11.6689H11.6709C11.901 11.6689 12.0876 11.4824 12.0876 11.2522C12.0876 11.0222 11.901 10.8356 11.6709 10.8356H8.33758C7.18697 10.8356 6.25423 9.9029 6.25423 8.75224C6.25423 7.60168 7.18697 6.66894 8.33758 6.66894H9.17092V5.00228H10.8376V6.66894H12.9209V8.33557H8.33758C8.10745 8.33557 7.9209 8.52215 7.9209 8.75224C7.9209 8.9824 8.10745 9.1689 8.33758 9.1689H11.6709C12.8215 9.1689 13.7542 10.1017 13.7542 11.2522C13.7542 12.4029 12.8215 13.3356 11.6709 13.3356H10.8376V15.0022H9.17092V13.3356H7.08757V11.6689Z" fill="#04074E"/>
</svg>
