<svg width="80" height="80" viewBox="0 0 80 80" fill="none" xmlns="http://www.w3.org/2000/svg">
<path d="M61.0014 46C53.2803 46 47 52.2797 47 60.0015C47 67.7204 53.2797 74 61.0014 74C68.7204 74 75 67.7203 75 60.0015C75 52.2803 68.7203 46 61.0014 46ZM62.4149 69.9378V70.9944C62.4149 71.7789 61.7804 72.4106 61.0014 72.4106C60.2197 72.4106 59.588 71.7789 59.588 70.9944V69.935C58.4012 69.6376 57.3305 68.9635 56.5346 67.9919C56.0417 67.3857 56.1324 66.4963 56.7385 66.0035C57.3419 65.5106 58.2341 65.6012 58.727 66.2074C59.2878 66.8929 60.1149 67.2894 61.0015 67.2894C62.6189 67.2894 63.936 65.9723 63.936 64.3549C63.936 62.7347 62.6189 61.4204 61.0015 61.4204C57.8234 61.4204 55.2373 58.8343 55.2373 55.6562C55.2373 52.9654 57.0898 50.7022 59.5881 50.0705V49.0055C59.5881 48.2237 60.2226 47.5892 61.0015 47.5892C61.7832 47.5892 62.4149 48.2237 62.4149 49.0055V50.0648C63.6017 50.365 64.6724 51.0363 65.4683 52.0079C65.9612 52.6141 65.8706 53.5035 65.2644 53.9964C64.6582 54.492 63.7688 54.4014 63.276 53.7953C62.7151 53.1069 61.888 52.7132 61.0014 52.7132C59.3841 52.7132 58.0669 54.0303 58.0669 55.6477C58.0669 57.2651 59.3841 58.5822 61.0014 58.5822C64.1795 58.5822 66.7656 61.1683 66.7656 64.3464C66.7656 67.0401 64.9131 69.3034 62.4149 69.9378Z" fill="white"/>
<path d="M44.1654 60.1585C44.1654 63.1759 44.9586 66.0151 46.3447 68.4752C33.7659 71.3851 21.1582 70.1238 8.52306 64.7452C5.87795 63.6169 4.46368 60.7183 5.18917 57.9385C6.58934 52.5457 8.86459 48.5952 12.2804 47.5151C13.0934 47.2719 22.3782 44 22.3782 44L29.4581 55.0177L30.0001 45.7136H36.092L36.6284 55.0177L43.7083 44C43.7083 44 47.9935 45.5101 51 46.5564C46.8531 49.6529 44.1654 54.5957 44.1654 60.1585Z" fill="white"/>
<path d="M46.9621 20.4635C46.9678 20.2998 46.9736 20.1362 46.9736 19.9782C46.9736 13.6026 42.6637 8.24075 36.7911 6.59244C35.9637 6.34833 35.1046 6.1674 34.2052 6.06976C32.0315 5.83713 29.8636 6.19325 27.8916 7.0347C22.7082 9.06797 19.0325 14.0909 19.0325 19.9779C19.0325 20.1444 19.0382 20.3168 19.044 20.4891C18.3175 20.9658 18.0235 21.7096 18.0032 22.6257C17.9917 23.1742 18.0032 24.5785 18.1704 26.0633C18.2512 26.7698 18.4616 27.3816 18.9806 27.8927C19.5139 28.4183 20.1395 28.4642 20.7852 28.4384C23.1694 34.814 27.7445 41 33.0002 41C38.2067 41 42.7472 34.9231 45.1488 28.6104C45.29 28.5271 45.4515 28.464 45.5985 28.4582C46.6998 28.4094 47.5819 27.8235 47.7203 26.7495C47.9106 25.2676 47.9942 23.7656 47.9999 22.2723C48.0057 21.4825 47.6337 20.8369 46.9621 20.4635Z" fill="white"/>
</svg>
