<svg width="16" height="16" viewBox="0 0 16 16" fill="none" xmlns="http://www.w3.org/2000/svg">
<g clip-path="url(#clip0_3049_472)">
<path d="M5.99967 8.00004L7.33301 9.33337L10.333 6.33337M6.13427 13.734C6.35277 13.7051 6.5735 13.7643 6.74756 13.8984L7.54971 14.5139C7.81487 14.7176 8.18373 14.7176 8.44816 14.5139L9.28068 13.8747C9.43622 13.7554 9.6325 13.7028 9.82656 13.7288L10.868 13.8658C11.199 13.9095 11.5183 13.7251 11.6464 13.4162L12.0471 12.4473C12.1219 12.2658 12.2656 12.1221 12.4471 12.0473L13.4159 11.6466C13.7248 11.5192 13.9092 11.1992 13.8655 10.8681L13.7336 9.86443C13.7048 9.64592 13.764 9.42519 13.8981 9.25112L14.5136 8.44892C14.7173 8.18374 14.7173 7.81486 14.5136 7.55042L13.8744 6.71785C13.7551 6.5623 13.7025 6.36601 13.7285 6.17194L13.8655 5.13049C13.9092 4.79939 13.7248 4.48014 13.4159 4.35199L12.4471 3.95126C12.2656 3.87645 12.1219 3.73275 12.0471 3.55128L11.6464 2.58241C11.519 2.27353 11.199 2.08909 10.868 2.1328L9.82656 2.26983C9.6325 2.2965 9.43622 2.2439 9.28142 2.12539L8.4489 1.48615C8.18373 1.28245 7.81487 1.28245 7.55045 1.48615L6.71793 2.12539C6.56239 2.2439 6.36611 2.2965 6.17205 2.27131L5.13065 2.13428C4.79957 2.09058 4.48034 2.27501 4.3522 2.5839L3.95223 3.55276C3.87668 3.73349 3.73299 3.87719 3.55227 3.95275L2.58346 4.35273C2.2746 4.48088 2.09017 4.80013 2.13387 5.13123L2.27089 6.17268C2.29608 6.36675 2.24349 6.56304 2.12498 6.71785L1.48577 7.55042C1.28209 7.8156 1.28209 8.18448 1.48577 8.44892L2.12498 9.28149C2.24423 9.43704 2.29682 9.63333 2.27089 9.8274L2.13387 10.8689C2.09017 11.2 2.2746 11.5192 2.58346 11.6473L3.55227 12.0481C3.73373 12.1229 3.87743 12.2666 3.95223 12.4481L4.35294 13.4169C4.48034 13.7258 4.80031 13.9102 5.13139 13.8665L6.13427 13.734Z" stroke="white" stroke-width="1.5" stroke-linecap="round" stroke-linejoin="round"/>
</g>
<defs>
<clipPath id="clip0_3049_472">
<rect width="16" height="16" fill="white"/>
</clipPath>
</defs>
</svg>
