<svg width="20" height="20" viewBox="0 0 20 20" fill="none" xmlns="http://www.w3.org/2000/svg">
<path d="M7.5 8.33346C7.5 8.44396 7.5439 8.54994 7.62204 8.62808C7.70018 8.70622 7.80616 8.75012 7.91667 8.75012C8.02717 8.75012 8.13315 8.70622 8.21129 8.62808C8.28943 8.54994 8.33333 8.44396 8.33333 8.33346V7.50012C8.33333 7.38962 8.28943 7.28363 8.21129 7.20549C8.13315 7.12735 8.02717 7.08346 7.91667 7.08346C7.80616 7.08346 7.70018 7.12735 7.62204 7.20549C7.5439 7.28363 7.5 7.38962 7.5 7.50012V8.33346ZM7.5 8.33346C7.5 9.43852 7.93899 10.4983 8.72039 11.2797C9.50179 12.0611 10.5616 12.5001 11.6667 12.5001M11.6667 12.5001H12.5C12.6105 12.5001 12.7165 12.4562 12.7946 12.3781C12.8728 12.2999 12.9167 12.194 12.9167 12.0835C12.9167 11.9729 12.8728 11.867 12.7946 11.7888C12.7165 11.7107 12.6105 11.6668 12.5 11.6668H11.6667C11.5562 11.6668 11.4502 11.7107 11.372 11.7888C11.2939 11.867 11.25 11.9729 11.25 12.0835C11.25 12.194 11.2939 12.2999 11.372 12.3781C11.4502 12.4562 11.5562 12.5001 11.6667 12.5001ZM2.5 17.5001L3.875 14.3334C2.82305 12.8401 2.35222 11.0143 2.55087 9.19852C2.74952 7.38274 3.60399 5.70188 4.95392 4.47136C6.30386 3.24085 8.05646 2.54527 9.88282 2.51518C11.7092 2.48508 13.4837 3.12254 14.8735 4.30791C16.2632 5.49328 17.1726 7.14508 17.431 8.95332C17.6893 10.7616 17.2789 12.6019 16.2768 14.1291C15.2746 15.6562 13.7495 16.7651 11.9878 17.2477C10.2261 17.7303 8.34885 17.5533 6.70833 16.7501L2.5 17.5001Z" stroke="#03A841" stroke-width="1.5" stroke-linecap="round" stroke-linejoin="round"/>
</svg>
