<svg width="20" height="20" viewBox="0 0 20 20" fill="none" xmlns="http://www.w3.org/2000/svg">
<path d="M10.0003 18.3334C5.39795 18.3334 1.66699 14.6024 1.66699 10.0001C1.66699 5.39771 5.39795 1.66675 10.0003 1.66675C14.6027 1.66675 18.3337 5.39771 18.3337 10.0001C18.3337 14.6024 14.6027 18.3334 10.0003 18.3334ZM8.09201 16.3896C7.28985 14.6883 6.79809 12.8119 6.68975 10.8334H3.38523C3.71533 13.4805 5.59732 15.6457 8.09201 16.3896ZM8.35924 10.8334C8.48457 12.8657 9.06516 14.7748 10.0003 16.4601C10.9355 14.7748 11.5161 12.8657 11.6414 10.8334H8.35924ZM16.6154 10.8334H13.3109C13.2026 12.8119 12.7108 14.6883 11.9087 16.3896C14.4033 15.6457 16.2853 13.4805 16.6154 10.8334ZM3.38523 9.16675H6.68975C6.79809 7.18822 7.28985 5.31181 8.09201 3.61055C5.59732 4.35452 3.71533 6.51966 3.38523 9.16675ZM8.35924 9.16675H11.6414C11.5161 7.13443 10.9355 5.22529 10.0003 3.54007C9.06516 5.22529 8.48457 7.13443 8.35924 9.16675ZM11.9087 3.61055C12.7108 5.31181 13.2026 7.18822 13.3109 9.16675H16.6154C16.2853 6.51966 14.4033 4.35452 11.9087 3.61055Z" fill="#04074E"/>
</svg>
