<svg width="16" height="16" viewBox="0 0 16 16" fill="none" xmlns="http://www.w3.org/2000/svg">
<path d="M0.776413 3.29803C0.406904 2.95505 0.223145 2.53052 0.223145 2.02539C0.223145 1.52027 0.407887 1.07705 0.776413 0.733092C1.14592 0.390117 1.62157 0.21814 2.20433 0.21814C2.78709 0.21814 3.24407 0.390117 3.6126 0.733092C3.9821 1.07607 4.16586 1.50749 4.16586 2.02539C4.16586 2.54329 3.98112 2.95505 3.6126 3.29803C3.24309 3.641 2.77432 3.81298 2.20433 3.81298C1.63434 3.81298 1.14592 3.641 0.776413 3.29803ZM3.85533 5.26547V15.7807H0.532696V5.26547H3.85533Z" fill="white"/>
<path d="M14.916 6.30416C15.6403 7.09035 16.0019 8.1694 16.0019 9.54326V15.5949H12.8464V9.96977C12.8464 9.27694 12.6666 8.73839 12.3079 8.35513C11.9492 7.97186 11.4657 7.77925 10.8603 7.77925C10.2549 7.77925 9.7714 7.97088 9.4127 8.35513C9.054 8.73839 8.87417 9.27694 8.87417 9.96977V15.5949H5.69995V5.23593H8.87417V6.60979C9.19552 6.15183 9.62893 5.7902 10.1734 5.52387C10.7178 5.25755 11.33 5.12488 12.0111 5.12488C13.2238 5.12488 14.1927 5.51797 14.916 6.30318V6.30416Z" fill="white"/>
</svg>
