<svg width="24" height="24" viewBox="0 0 24 24" fill="none" xmlns="http://www.w3.org/2000/svg">
<path d="M8.1155 11.8845V10.1155H9.8845V11.8845H8.1155ZM14.1155 11.8845V10.1155H15.8845V11.8845H14.1155ZM3.5 21.5V14.2115H4.5V10C4.5 8.96417 4.6955 7.99075 5.0865 7.07975C5.4775 6.16892 6.01283 5.37342 6.6925 4.69325C7.372 4.01292 8.16867 3.47733 9.0825 3.0865C9.9965 2.6955 10.969 2.5 12 2.5C13.0358 2.5 14.0092 2.6955 14.9202 3.0865C15.8311 3.4775 16.6266 4.01308 17.3068 4.69325C17.9869 5.37342 18.5225 6.16892 18.9135 7.07975C19.3045 7.99075 19.5 8.96417 19.5 10V14.2115H20.5V21.5H3.5ZM5 20H7.25V15.7115H5V20ZM8.75 20H11.25V15.7115H8.75V20ZM6 14.2115H11.25V4.05575C9.82317 4.21208 8.59142 4.84442 7.55475 5.95275C6.51825 7.06108 6 8.41017 6 10V14.2115ZM12.75 14.2115H18V10C18 8.41017 17.4818 7.06108 16.4453 5.95275C15.4086 4.84442 14.1768 4.21208 12.75 4.05575V14.2115ZM12.75 20H15.25V15.7115H12.75V20ZM16.75 20H19V15.7115H16.75V20Z" fill="#687588"/>
</svg>
