<svg width="12" height="16" viewBox="0 0 12 16" fill="none" xmlns="http://www.w3.org/2000/svg">
<path d="M2.34254 12.875C2.111 12.875 1.91715 12.7998 1.761 12.6494C1.60469 12.4991 1.52654 12.3127 1.52654 12.0904C1.52654 11.868 1.60492 11.6819 1.76169 11.532C1.91831 11.3819 2.11238 11.3068 2.34392 11.3068C2.57546 11.3068 2.76931 11.382 2.92546 11.5324C3.08162 11.6828 3.15969 11.8691 3.15969 12.0915C3.15969 12.3138 3.08138 12.5 2.92477 12.6501C2.76815 12.8001 2.57408 12.875 2.34254 12.875ZM5.99931 12.875C5.76777 12.875 5.57392 12.7998 5.41777 12.6494C5.26162 12.4991 5.18354 12.3127 5.18354 12.0904C5.18354 11.868 5.26185 11.6819 5.41846 11.532C5.57508 11.3819 5.76915 11.3068 6.00069 11.3068C6.23223 11.3068 6.42608 11.382 6.58223 11.5324C6.73839 11.6828 6.81646 11.8691 6.81646 12.0915C6.81646 12.3138 6.73815 12.5 6.58154 12.6501C6.42492 12.8001 6.23085 12.875 5.99931 12.875ZM9.65608 12.875C9.42454 12.875 9.23069 12.7998 9.07454 12.6494C8.91838 12.4991 8.84031 12.3127 8.84031 12.0904C8.84031 11.868 8.91862 11.6819 9.07523 11.532C9.23185 11.3819 9.42592 11.3068 9.65746 11.3068C9.889 11.3068 10.0828 11.382 10.239 11.5324C10.3953 11.6828 10.4735 11.8691 10.4735 12.0915C10.4735 12.3138 10.3951 12.5 10.2383 12.6501C10.0817 12.8001 9.88762 12.875 9.65608 12.875ZM0 9.36368V8.03413C0 6.55345 0.506846 5.2725 1.52054 4.19128C2.53408 3.11006 3.79646 2.48871 5.30769 2.32725V0.5H6.69231V2.32725C8.20354 2.48871 9.46592 3.11006 10.4795 4.19128C11.4932 5.2725 12 6.55345 12 8.03413V9.36368H0ZM1.38462 8.03413H10.6154C10.6154 6.80798 10.1654 5.76281 9.26538 4.8986C8.36539 4.03439 7.27692 3.60229 6 3.60229C4.72308 3.60229 3.63462 4.03439 2.73462 4.8986C1.83462 5.76281 1.38462 6.80798 1.38462 8.03413ZM2.34254 15.5C2.111 15.5 1.91715 15.4248 1.761 15.2744C1.60469 15.124 1.52654 14.9377 1.52654 14.7153C1.52654 14.493 1.60492 14.3069 1.76169 14.1569C1.91831 14.0068 2.11238 13.9318 2.34392 13.9318C2.57546 13.9318 2.76931 14.007 2.92546 14.1574C3.08162 14.3078 3.15969 14.4941 3.15969 14.7165C3.15969 14.9388 3.08138 15.125 2.92477 15.2751C2.76815 15.425 2.57408 15.5 2.34254 15.5ZM5.99931 15.5C5.76777 15.5 5.57392 15.4248 5.41777 15.2744C5.26162 15.124 5.18354 14.9377 5.18354 14.7153C5.18354 14.493 5.26185 14.3069 5.41846 14.1569C5.57508 14.0068 5.76915 13.9318 6.00069 13.9318C6.23223 13.9318 6.42608 14.007 6.58223 14.1574C6.73839 14.3078 6.81646 14.4941 6.81646 14.7165C6.81646 14.9388 6.73815 15.125 6.58154 15.2751C6.42492 15.425 6.23085 15.5 5.99931 15.5ZM9.65608 15.5C9.42454 15.5 9.23069 15.4248 9.07454 15.2744C8.91838 15.124 8.84031 14.9377 8.84031 14.7153C8.84031 14.493 8.91862 14.3069 9.07523 14.1569C9.23185 14.0068 9.42592 13.9318 9.65746 13.9318C9.889 13.9318 10.0828 14.007 10.239 14.1574C10.3953 14.3078 10.4735 14.4941 10.4735 14.7165C10.4735 14.9388 10.3951 15.125 10.2383 15.2751C10.0817 15.425 9.88762 15.5 9.65608 15.5Z" fill="#323B49"/>
</svg>
