<svg width="16" height="12" viewBox="0 0 16 12" fill="none" xmlns="http://www.w3.org/2000/svg">
<path d="M0 11.5V6.66C0 6.33176 0.0745264 6.01335 0.223579 5.70476C0.372491 5.39617 0.578667 5.14259 0.842105 4.944V2.7C0.842105 2.08517 1.04589 1.5648 1.45347 1.13888C1.86105 0.712959 2.35902 0.5 2.94737 0.5H6.52632C6.83298 0.5 7.10772 0.562333 7.35053 0.687C7.59347 0.811667 7.80997 0.984 8 1.204C8.19004 0.984 8.40653 0.811667 8.64947 0.687C8.89228 0.562333 9.16702 0.5 9.47368 0.5H13.0526C13.641 0.5 14.1389 0.712959 14.5465 1.13888C14.9541 1.5648 15.1579 2.08517 15.1579 2.7V4.944C15.4213 5.14259 15.6275 5.39617 15.7764 5.70476C15.9255 6.01335 16 6.33176 16 6.66V11.5H14.7368V9.74H1.26316V11.5H0ZM8.63158 4.46H13.8947V2.7C13.8947 2.45067 13.814 2.24167 13.6526 2.073C13.4912 1.90433 13.2912 1.82 13.0526 1.82H9.47368C9.23509 1.82 9.03509 1.90433 8.87368 2.073C8.71228 2.24167 8.63158 2.45067 8.63158 2.7V4.46ZM2.10526 4.46H7.36842V2.7C7.36842 2.45067 7.28772 2.24167 7.12632 2.073C6.96491 1.90433 6.76491 1.82 6.52632 1.82H2.94737C2.70877 1.82 2.50877 1.90433 2.34737 2.073C2.18597 2.24167 2.10526 2.45067 2.10526 2.7V4.46ZM1.26316 8.42H14.7368V6.66C14.7368 6.41067 14.6561 6.20167 14.4947 6.033C14.3333 5.86433 14.1333 5.78 13.8947 5.78H2.10526C1.86667 5.78 1.66667 5.86433 1.50526 6.033C1.34386 6.20167 1.26316 6.41067 1.26316 6.66V8.42Z" fill="#323B49"/>
</svg>
