<svg width="20" height="21" viewBox="0 0 20 21" fill="none" xmlns="http://www.w3.org/2000/svg">
<path d="M11.4584 11.466C10.8761 11.466 10.3834 11.2643 9.98003 10.861C9.5767 10.4576 9.37503 9.96486 9.37503 9.38263C9.37503 8.80041 9.5767 8.30763 9.98003 7.9043C10.3834 7.50097 10.8761 7.2993 11.4584 7.2993C12.0406 7.2993 12.5334 7.50097 12.9367 7.9043C13.34 8.30763 13.5417 8.80041 13.5417 9.38263C13.5417 9.96486 13.34 10.4576 12.9367 10.861C12.5334 11.2643 12.0406 11.466 11.4584 11.466ZM5.96149 14.0462C5.54732 14.0462 5.19274 13.8987 4.89774 13.6037C4.60274 13.3087 4.45524 12.954 4.45524 12.5397V6.22555C4.45524 5.81138 4.60274 5.4568 4.89774 5.1618C5.19274 4.8668 5.54732 4.7193 5.96149 4.7193H16.955C17.3693 4.7193 17.724 4.8668 18.019 5.1618C18.314 5.4568 18.4615 5.81138 18.4615 6.22555V12.5397C18.4615 12.954 18.314 13.3087 18.019 13.6037C17.724 13.8987 17.3693 14.0462 16.955 14.0462H5.96149ZM7.21149 12.7962H15.7052C15.7052 12.3806 15.8527 12.0256 16.1477 11.7312C16.4427 11.4369 16.7973 11.2897 17.2115 11.2897V7.47555C16.7959 7.47555 16.441 7.32805 16.1467 7.03305C15.8524 6.73805 15.7052 6.38347 15.7052 5.9693H7.21149C7.21149 6.38485 7.06399 6.73979 6.76899 7.03409C6.47399 7.3284 6.11941 7.47555 5.70524 7.47555V11.2897C6.1208 11.2897 6.47573 11.4372 6.77003 11.7322C7.06434 12.0272 7.21149 12.3819 7.21149 12.7962ZM15.9775 16.9628H3.04503C2.63073 16.9628 2.27607 16.8153 1.98107 16.5203C1.68607 16.2253 1.53857 15.8707 1.53857 15.4564V7.20326H2.78857V15.4564C2.78857 15.5204 2.81524 15.5792 2.86857 15.6326C2.92205 15.6861 2.98087 15.7128 3.04503 15.7128H15.9775V16.9628ZM5.96149 12.7962H5.70524V5.9693H5.96149C5.89205 5.9693 5.83198 5.99465 5.78128 6.04534C5.73059 6.09604 5.70524 6.1561 5.70524 6.22555V12.5397C5.70524 12.6092 5.73059 12.6692 5.78128 12.7199C5.83198 12.7708 5.89205 12.7962 5.96149 12.7962Z" fill="#0954E5"/>
</svg>
