<svg width="24" height="24" viewBox="0 0 24 24" fill="none" xmlns="http://www.w3.org/2000/svg">
<path d="M7.44225 17.75H9.94225V13.8463H10.9423V11.3078C10.9423 10.8218 10.7721 10.4086 10.4317 10.0682C10.0914 9.72792 9.67825 9.55775 9.19225 9.55775H8.19225C7.70642 9.55775 7.29333 9.72792 6.953 10.0682C6.6125 10.4086 6.44225 10.8218 6.44225 11.3078V13.8463H7.44225V17.75ZM8.69225 8.59625C9.01658 8.59625 9.29 8.485 9.5125 8.2625C9.735 8.04 9.84625 7.76658 9.84625 7.44225C9.84625 7.11792 9.735 6.84458 9.5125 6.62225C9.29 6.39975 9.01658 6.2885 8.69225 6.2885C8.36792 6.2885 8.09458 6.39975 7.87225 6.62225C7.64975 6.84458 7.5385 7.11792 7.5385 7.44225C7.5385 7.76658 7.64975 8.04 7.87225 8.2625C8.09458 8.485 8.36792 8.59625 8.69225 8.59625ZM13.3558 10.75H17.452L15.4038 7.47125L13.3558 10.75ZM15.4038 16.5288L17.452 13.25H13.3558L15.4038 16.5288ZM5.30775 20.5C4.80258 20.5 4.375 20.325 4.025 19.975C3.675 19.625 3.5 19.1974 3.5 18.6923V5.30775C3.5 4.80258 3.675 4.375 4.025 4.025C4.375 3.675 4.80258 3.5 5.30775 3.5H18.6923C19.1974 3.5 19.625 3.675 19.975 4.025C20.325 4.375 20.5 4.80258 20.5 5.30775V18.6923C20.5 19.1974 20.325 19.625 19.975 19.975C19.625 20.325 19.1974 20.5 18.6923 20.5H5.30775ZM5.30775 19H18.6923C18.7821 19 18.8558 18.9712 18.9135 18.9135C18.9712 18.8558 19 18.7821 19 18.6923V5.30775C19 5.21792 18.9712 5.14417 18.9135 5.0865C18.8558 5.02883 18.7821 5 18.6923 5H5.30775C5.21792 5 5.14417 5.02883 5.0865 5.0865C5.02883 5.14417 5 5.21792 5 5.30775V18.6923C5 18.7821 5.02883 18.8558 5.0865 18.9135C5.14417 18.9712 5.21792 19 5.30775 19Z" fill="#687588"/>
</svg>
