<svg width="25" height="24" viewBox="0 0 25 24" fill="none" xmlns="http://www.w3.org/2000/svg">
<path d="M3.75 7C3.75 6.46957 3.96071 5.96086 4.33579 5.58579C4.71086 5.21071 5.21957 5 5.75 5H19.75C20.2804 5 20.7891 5.21071 21.1642 5.58579C21.5393 5.96086 21.75 6.46957 21.75 7M3.75 7V17C3.75 17.5304 3.96071 18.0391 4.33579 18.4142C4.71086 18.7893 5.21957 19 5.75 19H19.75C20.2804 19 20.7891 18.7893 21.1642 18.4142C21.5393 18.0391 21.75 17.5304 21.75 17V7M3.75 7L12.75 13L21.75 7" stroke="white" stroke-width="1.5" stroke-linecap="round" stroke-linejoin="round"/>
</svg>
