<svg width="16" height="16" viewBox="0 0 16 16" fill="none" xmlns="http://www.w3.org/2000/svg">
<path d="M7.46166 13.6668V7.46166H13.6668V8.46166H9.16416L13.6668 12.9643L12.9643 13.6668L8.46166 9.16416V13.6668H7.46166ZM4.89766 13.6668V12.5898H5.9745V13.6668H4.89766ZM3.4105 3.4105H2.3335C2.3335 3.11427 2.43894 2.86072 2.64983 2.64983C2.86072 2.43894 3.11427 2.3335 3.4105 2.3335V3.4105ZM4.89766 3.4105V2.3335H5.9745V3.4105H4.89766ZM7.46166 3.4105V2.3335H8.53866V3.4105H7.46166ZM10.0258 3.4105V2.3335H11.1027V3.4105H10.0258ZM12.5898 3.4105V2.3335C12.8861 2.3335 13.1396 2.43894 13.3505 2.64983C13.5614 2.86072 13.6668 3.11427 13.6668 3.4105H12.5898ZM3.4105 12.5898V13.6668C3.11427 13.6668 2.86072 13.5614 2.64983 13.3505C2.43894 13.1396 2.3335 12.8861 2.3335 12.5898H3.4105ZM2.3335 11.1027V10.0258H3.4105V11.1027H2.3335ZM2.3335 8.53866V7.46166H3.4105V8.53866H2.3335ZM2.3335 5.9745V4.89766H3.4105V5.9745H2.3335ZM12.5898 5.9745V4.89766H13.6668V5.9745H12.5898Z" fill="white"/>
</svg>
