<svg width="24" height="24" viewBox="0 0 24 24" fill="none" xmlns="http://www.w3.org/2000/svg">
<path d="M1.6499 19.5L4.8129 13.2902C4.96574 12.9904 5.18149 12.7517 5.46015 12.574C5.73882 12.3965 6.0514 12.3078 6.3979 12.3078C6.75957 12.3078 7.09132 12.4019 7.39315 12.5903C7.69515 12.7784 7.91407 13.0458 8.0499 13.3923L8.6479 14.8308C8.72607 15.0141 8.87824 15.0982 9.1044 15.083C9.3304 15.0678 9.47574 14.969 9.5404 14.7865L11.6614 7.8615C11.8819 7.132 12.2973 6.54967 12.9077 6.1145C13.5178 5.67917 14.2024 5.4615 14.9614 5.4615C15.7051 5.4615 16.3769 5.675 16.9769 6.102C17.5769 6.52883 17.9922 7.09358 18.2229 7.79625L22.3749 19.5H20.7884L16.7942 8.26725C16.6545 7.85192 16.4189 7.5305 16.0874 7.303C15.7561 7.07533 15.3795 6.9615 14.9577 6.9615C14.5358 6.9615 14.1567 7.0795 13.8202 7.3155C13.4835 7.55133 13.2453 7.87692 13.1057 8.29225L10.9844 15.2172C10.8472 15.6263 10.6069 15.9599 10.2634 16.2183C9.91974 16.4766 9.52874 16.6058 9.0904 16.6058C8.6959 16.6058 8.33057 16.5009 7.9944 16.2913C7.6584 16.0817 7.41349 15.7892 7.25965 15.4135L6.64215 13.9173C6.59099 13.8083 6.5029 13.7522 6.3779 13.749C6.25274 13.7458 6.16132 13.7987 6.10365 13.9078L3.30765 19.5H1.6499ZM6.23965 9.9615C5.48365 9.9615 4.83807 9.69242 4.3029 9.15425C3.76757 8.61625 3.4999 7.97583 3.4999 7.233C3.4999 6.47517 3.76757 5.83017 4.3029 5.298C4.83807 4.766 5.48365 4.5 6.23965 4.5C6.99582 4.5 7.63849 4.76575 8.16765 5.29725C8.69682 5.82892 8.9614 6.47442 8.9614 7.23375C8.9614 7.97792 8.69682 8.61858 8.16765 9.15575C7.63849 9.69292 6.99582 9.9615 6.23965 9.9615ZM6.2389 8.4615C6.58524 8.4615 6.87557 8.34167 7.1099 8.102C7.34424 7.86217 7.4614 7.57017 7.4614 7.226C7.4614 6.88183 7.34424 6.59142 7.1099 6.35475C6.87557 6.11825 6.58524 6 6.2389 6C5.8924 6 5.59924 6.11792 5.3594 6.35375C5.11974 6.58975 4.9999 6.88208 4.9999 7.23075C4.9999 7.57175 5.11974 7.86217 5.3594 8.102C5.59924 8.34167 5.8924 8.4615 6.2389 8.4615Z" fill="#687588"/>
</svg>
