<svg width="24" height="24" viewBox="0 0 24 24" fill="none" xmlns="http://www.w3.org/2000/svg">
<path d="M10.6 17.45C10.8167 17.6333 11.0458 17.7625 11.2875 17.8375C11.5292 17.9125 11.7667 17.95 12 17.95C12.4833 17.95 12.9208 17.7958 13.3125 17.4875C13.7042 17.1792 13.9333 16.7333 14 16.15C14.0833 15.3667 13.8417 14.7875 13.275 14.4125C12.7083 14.0375 12.2833 13.55 12 12.95C11.9167 13.1833 11.875 13.4 11.875 13.6C11.875 13.8 11.9 14.0167 11.95 14.25C12 14.5333 12.0583 14.8 12.125 15.05C12.1917 15.3 12.2 15.5667 12.15 15.85C12.0667 16.15 11.8833 16.4583 11.6 16.775C11.3167 17.0917 10.9833 17.3167 10.6 17.45ZM2.5 21.5V2.5H21.5V21.5H2.5ZM12 18.5C12.8333 18.5 13.5417 18.2083 14.125 17.625C14.7083 17.0417 15 16.3333 15 15.5C15 15.0872 14.9167 14.7474 14.75 14.4808C14.5833 14.2141 14.35 13.9705 14.05 13.75C13.4167 13.3 12.8875 12.8292 12.4625 12.3375C12.0375 11.8458 11.7 11.35 11.45 10.85C10.7167 11.4333 10.125 12.0958 9.675 12.8375C9.225 13.5792 9 14.45 9 15.45C9 16.0333 9.3 16.6875 9.9 17.4125C10.5 18.1375 11.2 18.5 12 18.5ZM4 20H6.34625V18.5H8.9615C8.5205 18.068 8.16667 17.5773 7.9 17.028C7.63333 16.4787 7.5 15.9527 7.5 15.45C7.5 14.7218 7.58658 14.0427 7.75975 13.4125C7.93275 12.7823 8.21608 12.1811 8.60975 11.6088C9.00325 11.0363 9.52433 10.4824 10.173 9.94725C10.8218 9.41192 11.6167 8.87825 12.5577 8.34625C12.5218 9.06675 12.6907 9.78825 13.0645 10.5107C13.4382 11.2331 14.0564 11.9103 14.9193 12.5425C15.4051 12.904 15.79 13.3251 16.074 13.8058C16.358 14.2866 16.5 14.8513 16.5 15.5C16.5 16.0642 16.3971 16.6001 16.1913 17.1077C15.9856 17.6154 15.6847 18.0795 15.2885 18.5H17.6538V20H20V4H4V20Z" fill="#687588"/>
</svg>
