<svg width="24" height="24" viewBox="0 0 24 24" fill="none" xmlns="http://www.w3.org/2000/svg">
<path d="M4.30775 21.5C3.80258 21.5 3.375 21.325 3.025 20.975C2.675 20.625 2.5 20.1974 2.5 19.6923V4.30775C2.5 3.80258 2.675 3.375 3.025 3.025C3.375 2.675 3.80258 2.5 4.30775 2.5H19.6923C20.1974 2.5 20.625 2.675 20.975 3.025C21.325 3.375 21.5 3.80258 21.5 4.30775V19.6923C21.5 20.1974 21.325 20.625 20.975 20.975C20.625 21.325 20.1974 21.5 19.6923 21.5H4.30775ZM4.30775 20H19.6923C19.7693 20 19.8398 19.9679 19.9038 19.9038C19.9679 19.8398 20 19.7693 20 19.6923V4.30775C20 4.23075 19.9679 4.16025 19.9038 4.09625C19.8398 4.03208 19.7693 4 19.6923 4H4.30775C4.23075 4 4.16025 4.03208 4.09625 4.09625C4.03208 4.16025 4 4.23075 4 4.30775V19.6923C4 19.7693 4.03208 19.8398 4.09625 19.9038C4.16025 19.9679 4.23075 20 4.30775 20ZM8.80775 13.8845C8.56275 13.8845 8.35408 13.7983 8.18175 13.626C8.00925 13.4535 7.923 13.2448 7.923 13C7.923 12.7552 8.00925 12.5465 8.18175 12.374C8.35408 12.2017 8.56275 12.1155 8.80775 12.1155C9.05258 12.1155 9.26125 12.2017 9.43375 12.374C9.60608 12.5465 9.69225 12.7552 9.69225 13C9.69225 13.2448 9.60608 13.4535 9.43375 13.626C9.26125 13.7983 9.05258 13.8845 8.80775 13.8845ZM15.1923 13.8845C14.9474 13.8845 14.7388 13.7983 14.5663 13.626C14.3939 13.4535 14.3077 13.2448 14.3077 13C14.3077 12.7552 14.3939 12.5465 14.5663 12.374C14.7388 12.2017 14.9474 12.1155 15.1923 12.1155C15.4373 12.1155 15.6459 12.2017 15.8182 12.374C15.9907 12.5465 16.077 12.7552 16.077 13C16.077 13.2448 15.9907 13.4535 15.8182 13.626C15.6459 13.7983 15.4373 13.8845 15.1923 13.8845ZM5.5 11.177V17.373C5.5 17.555 5.559 17.705 5.677 17.823C5.795 17.941 5.945 18 6.127 18H6.373C6.55517 18 6.70517 17.941 6.823 17.823C6.941 17.705 7 17.555 7 17.373V16H17V17.373C17 17.555 17.059 17.705 17.177 17.823C17.2948 17.941 17.4448 18 17.627 18H17.873C18.055 18 18.205 17.941 18.323 17.823C18.441 17.705 18.5 17.555 18.5 17.373V11.177L16.927 6.627C16.8628 6.4385 16.7542 6.28692 16.601 6.17225C16.4478 6.05742 16.277 6 16.0885 6H7.9115C7.723 6 7.55217 6.05742 7.399 6.17225C7.24583 6.28692 7.13717 6.4385 7.073 6.627L5.5 11.177ZM7.477 10L8.35 7.5H15.65L16.523 10H7.477ZM7 14.5V11.5H17V14.5H7Z" fill="#687588"/>
</svg>
