<svg width="24" height="24" viewBox="0 0 24 24" fill="none" xmlns="http://www.w3.org/2000/svg">
<path d="M11.25 20.7501V12.8136C10.2475 12.8136 9.2866 12.6238 8.36727 12.2443C7.4481 11.8648 6.63593 11.3225 5.93077 10.6173C5.22577 9.91216 4.68768 9.09807 4.31652 8.17507C3.94535 7.25207 3.75977 6.28991 3.75977 5.28857V3.78857H5.25977C6.2436 3.78857 7.19618 3.98024 8.11752 4.36357C9.03902 4.74674 9.8511 5.29033 10.5538 5.99433C11.0769 6.51749 11.5061 7.10182 11.8413 7.74732C12.1766 8.39282 12.4167 9.07841 12.5615 9.80407C12.6768 9.60407 12.8053 9.41457 12.947 9.23557C13.0887 9.05674 13.2468 8.88016 13.4213 8.70582C14.1254 8.00182 14.9392 7.45824 15.8625 7.07507C16.7858 6.69174 17.7483 6.50007 18.75 6.50007H20.25V8.00007C20.25 9.00191 20.0583 9.96457 19.6748 10.8881C19.2913 11.8116 18.7473 12.6256 18.043 13.3301C17.3387 14.0344 16.5311 14.5722 15.6203 14.9433C14.7093 15.3145 13.7525 15.5001 12.75 15.5001V20.7501H11.25ZM11.2598 11.2886C11.2598 10.4886 11.1056 9.72607 10.7973 9.00107C10.4889 8.27607 10.0514 7.63024 9.48477 7.06357C8.9181 6.49691 8.27227 6.05941 7.54727 5.75107C6.82227 5.44274 6.05977 5.28857 5.25977 5.28857C5.25977 6.08857 5.40977 6.85524 5.70977 7.58857C6.00977 8.32191 6.4431 8.97191 7.00977 9.53857C7.57643 10.1052 8.22643 10.5386 8.95977 10.8386C9.6931 11.1386 10.4598 11.2886 11.2598 11.2886ZM12.75 14.0001C13.55 14.0001 14.3125 13.8501 15.0375 13.5501C15.7625 13.2501 16.4083 12.8167 16.975 12.2501C17.5417 11.6834 17.9792 11.0334 18.2875 10.3001C18.5958 9.56674 18.75 8.80007 18.75 8.00007C17.95 8.00007 17.1833 8.15424 16.45 8.46257C15.7167 8.77091 15.0667 9.20841 14.5 9.77507C13.9333 10.3417 13.5 10.9876 13.2 11.7126C12.9 12.4376 12.75 13.2001 12.75 14.0001Z" fill="#687588"/>
</svg>
