<svg width="14" height="17" viewBox="0 0 14 17" fill="none" xmlns="http://www.w3.org/2000/svg">
<path d="M11.2426 12.1066C10.6237 12.7476 9.40951 14.0049 8.4381 15.0108C7.65179 15.8251 6.34818 15.825 5.56188 15.0108C4.60833 14.0233 3.4156 12.7882 2.75736 12.1066C0.414214 9.68019 0.414214 5.74621 2.75736 3.31981C5.10051 0.893398 8.8995 0.893398 11.2426 3.31981C13.5858 5.74621 13.5858 9.68019 11.2426 12.1066Z" stroke="#323B49" stroke-width="1.5" stroke-linecap="round" stroke-linejoin="round"/>
<path d="M9.25 7.7132C9.25 9 8.24264 10.0432 7 10.0432C5.75736 10.0432 4.75 9 4.75 7.7132C4.75 6.42641 5.75736 5.38325 7 5.38325C8.24264 5.38325 9.25 6.42641 9.25 7.7132Z" stroke="#323B49" stroke-width="1.5" stroke-linecap="round" stroke-linejoin="round"/>
</svg>
