<svg width="21" height="21" viewBox="0 0 21 21" fill="none" xmlns="http://www.w3.org/2000/svg">
<path d="M16.1667 12.8603V7.23534L11.7917 4.1743L7.41671 7.23534V8.98201H6.16671V6.61826L11.7917 2.60388L17.4167 6.61826V12.8603H16.1667ZM12.2484 7.72409H13.0017V6.97076H12.2484V7.72409ZM10.5817 7.72409H11.335V6.97076H10.5817V7.72409ZM12.2484 9.39076H13.0017V8.63742H12.2484V9.39076ZM10.5817 9.39076H11.335V8.63742H10.5817V9.39076ZM5.91838 16.3539L11.9663 18.0653L16.9407 16.5237C16.898 16.3346 16.8099 16.1896 16.6763 16.0887C16.5427 15.9877 16.3915 15.9372 16.2228 15.9372H12.1417C11.7781 15.9372 11.4691 15.9233 11.2148 15.8955C10.9605 15.8678 10.6993 15.8069 10.4311 15.7128L8.54983 15.091L8.91983 13.8666L10.6073 14.4533C10.8596 14.5387 11.1507 14.5969 11.4809 14.6278C11.811 14.6588 12.2805 14.6786 12.8894 14.6872C12.8894 14.481 12.843 14.3031 12.75 14.1535C12.6571 14.0039 12.5348 13.9029 12.383 13.8505L7.54817 12.0749C7.53206 12.0696 7.51733 12.0657 7.504 12.063C7.49067 12.0603 7.47601 12.0589 7.46004 12.0589H5.91838V16.3539ZM1.75171 18.7897V10.8091H7.45046C7.53796 10.8091 7.62657 10.8187 7.71629 10.8378C7.80615 10.8571 7.88949 10.8796 7.96629 10.9051L12.8221 12.6937C13.2003 12.8335 13.5144 13.0811 13.7644 13.4364C14.0144 13.7917 14.1394 14.2086 14.1394 14.6872H16.2228C16.8211 14.6872 17.3085 14.8803 17.685 15.2666C18.0617 15.6527 18.25 16.154 18.25 16.7705V17.4435L12.008 19.3826L5.91838 17.6456V18.7897H1.75171ZM3.00171 17.5397H4.66838V12.0589H3.00171V17.5397Z" fill="#0954E5"/>
</svg>
