<svg width="21" height="21" viewBox="0 0 21 21" fill="none" xmlns="http://www.w3.org/2000/svg">
<path d="M9.89625 18.7897C9.70792 18.7897 9.51917 18.7521 9.33 18.6768C9.14069 18.6014 8.97035 18.4884 8.81896 18.3378L3.18917 12.708C3.03639 12.5558 2.925 12.3877 2.855 12.2037C2.785 12.0198 2.75 11.8327 2.75 11.6424C2.75 11.4521 2.785 11.2623 2.855 11.073C2.925 10.8839 3.03639 10.7136 3.18917 10.5622L10.3302 3.40823C10.4685 3.27018 10.632 3.16039 10.8206 3.07886C11.0092 2.99719 11.2042 2.95636 11.4054 2.95636H17.056C17.477 2.95636 17.8347 3.10462 18.129 3.40115C18.4233 3.69782 18.5704 4.05435 18.5704 4.47073V10.1214C18.5704 10.3247 18.5328 10.5184 18.4575 10.7026C18.3822 10.8868 18.2735 11.0472 18.1315 11.1839L10.9696 18.3378C10.8189 18.4884 10.6494 18.6014 10.461 18.6768C10.2728 18.7521 10.0846 18.7897 9.89625 18.7897ZM9.71 17.4595C9.76333 17.513 9.82611 17.5397 9.89833 17.5397C9.97042 17.5397 10.0331 17.513 10.0865 17.4595L17.2483 10.2928C17.2751 10.2662 17.2939 10.2368 17.3046 10.2047C17.3151 10.1727 17.3204 10.1407 17.3204 10.1087V4.47073C17.3204 4.39601 17.2951 4.33462 17.2444 4.28657C17.1937 4.23837 17.1309 4.21428 17.056 4.21428H11.3142L4.08021 11.4532C4.02674 11.5066 4 11.5693 4 11.6414C4 11.7136 4.02674 11.7764 4.08021 11.8297L9.71 17.4595ZM15.2131 7.35532C15.5047 7.35532 15.7525 7.25407 15.9567 7.05157C16.1607 6.84907 16.2627 6.6031 16.2627 6.31365C16.2627 6.02212 16.161 5.77435 15.9577 5.57032C15.7542 5.36615 15.5072 5.26407 15.2165 5.26407C14.9258 5.26407 14.679 5.3658 14.476 5.56928C14.273 5.77275 14.1715 6.01983 14.1715 6.31053C14.1715 6.60108 14.2727 6.84789 14.4752 7.05094C14.6778 7.25386 14.9238 7.35532 15.2131 7.35532Z" fill="#0954E5"/>
</svg>
