<svg width="12" height="12" viewBox="0 0 12 12" fill="none" xmlns="http://www.w3.org/2000/svg">
<path d="M1.64705 12C1.18677 12 0.797195 11.8404 0.478317 11.5213C0.159439 11.2022 0 10.8124 0 10.3517V0.788256C0 0.445382 0.154006 0.207088 0.462018 0.0733753C0.77003 -0.0604718 1.04014 -0.0112015 1.27236 0.221185L2.77392 1.72384L1.91951 2.57888L2.38998 3.0497L3.24439 2.19466L5.15142 4.10309L4.29701 4.95812L4.76748 5.42894L5.62189 4.5739L7.55991 6.51334L6.7055 7.36838L7.17597 7.83919L8.03038 6.98416L9.93741 8.89258L9.083 9.74762L9.55367 10.2186L10.4081 9.3636L11.7857 10.7422C12.0127 10.9694 12.0594 11.2358 11.9257 11.5415C11.7921 11.8472 11.5566 12 11.219 12H1.64705ZM2.04326 10.2031H8.4763L1.79555 3.51749V9.95524C1.79555 10.0276 1.81876 10.087 1.86518 10.1335C1.91159 10.1799 1.97095 10.2031 2.04326 10.2031Z" fill="#323B49"/>
</svg>
