<svg width="20" height="21" viewBox="0 0 20 21" fill="none" xmlns="http://www.w3.org/2000/svg">
<path fill-rule="evenodd" clip-rule="evenodd" d="M17.9419 5.76444C18.186 6.00852 18.186 6.40425 17.9419 6.64832L11.2753 13.315C11.0312 13.5591 10.6355 13.5591 10.3914 13.315L7.5 10.4236L2.94194 14.9817C2.69786 15.2257 2.30214 15.2257 2.05806 14.9817C1.81398 14.7376 1.81398 14.3419 2.05806 14.0978L7.05806 9.09777C7.30214 8.8537 7.69786 8.8537 7.94194 9.09777L10.8333 11.9892L17.0581 5.76444C17.3021 5.52036 17.6979 5.52036 17.9419 5.76444Z" fill="#058949"/>
<path fill-rule="evenodd" clip-rule="evenodd" d="M11.0417 6.20638C11.0417 5.8612 11.3215 5.58138 11.6667 5.58138H17.5C17.8452 5.58138 18.125 5.8612 18.125 6.20638V12.0397C18.125 12.3849 17.8452 12.6647 17.5 12.6647C17.1548 12.6647 16.875 12.3849 16.875 12.0397V6.83138H11.6667C11.3215 6.83138 11.0417 6.55156 11.0417 6.20638Z" fill="#058949"/>
</svg>
