<svg width="21" height="21" viewBox="0 0 21 21" fill="none" xmlns="http://www.w3.org/2000/svg">
<path fill-rule="evenodd" clip-rule="evenodd" d="M2.55806 14.9817C2.31398 14.7376 2.31398 14.3418 2.55806 14.0978L9.22473 7.4311C9.4688 7.18702 9.86453 7.18702 10.1086 7.4311L13 10.3225L17.5581 5.76444C17.8021 5.52036 18.1979 5.52036 18.4419 5.76444C18.686 6.00851 18.686 6.40424 18.4419 6.64832L13.4419 11.6483C13.1979 11.8924 12.8021 11.8924 12.5581 11.6483L9.66667 8.75693L3.44194 14.9817C3.19786 15.2257 2.80214 15.2257 2.55806 14.9817Z" fill="#E03137"/>
<path fill-rule="evenodd" clip-rule="evenodd" d="M9.45833 14.5397C9.45833 14.8849 9.17851 15.1647 8.83333 15.1647L3 15.1647C2.65482 15.1647 2.375 14.8849 2.375 14.5397L2.375 8.70638C2.375 8.3612 2.65482 8.08138 3 8.08138C3.34518 8.08138 3.625 8.3612 3.625 8.70638L3.625 13.9147L8.83333 13.9147C9.17851 13.9147 9.45833 14.1945 9.45833 14.5397Z" fill="#E03137"/>
</svg>
